
<svg width="1311" height="232" viewBox="0 0 1311 232" fill="none" xmlns="http://www.w3.org/2000/svg">
<path d="M294.673 143.234C299.46 143.234 303.367 139.35 303.078 134.572C302.118 118.755 298.534 103.186 292.455 88.5086C285.268 71.1587 274.735 55.3942 261.455 42.1151C248.176 28.836 232.412 18.3025 215.062 11.1159C200.385 5.0364 184.816 1.45281 168.999 0.493016C164.221 0.2031 160.337 4.11075 160.337 8.89732V134.567C160.337 139.353 164.217 143.234 169.004 143.234H294.673Z" fill="white"/>
<path d="M8.66684 160.568C3.88025 160.568 -0.0274048 164.452 0.262512 169.23C1.22232 185.047 4.80591 200.616 10.8854 215.293C18.072 232.643 28.6055 248.408 41.8846 261.687C55.1637 274.966 70.9282 285.499 88.2781 292.686C102.955 298.765 118.524 302.349 134.341 303.309C139.119 303.599 143.003 299.691 143.003 294.904V169.235C143.003 164.449 139.123 160.568 134.336 160.568H8.66684Z" fill="white"/>
<path d="M8.6666 143.234C3.88 143.234 -0.0276489 139.35 0.262268 134.572C1.22208 118.755 4.80566 103.186 10.8852 88.5086C18.0718 71.1587 28.6053 55.3942 41.8844 42.1151C55.1634 28.836 70.928 18.3025 88.2779 11.1159C102.955 5.0364 118.524 1.45281 134.341 0.493016C139.119 0.2031 143.003 4.11075 143.003 8.89732V134.567C143.003 139.353 139.123 143.234 134.336 143.234H8.6666Z" fill="white"/>
<path d="M167.559 302.124C162.773 302.124 158.865 298.24 159.155 293.462C160.115 277.645 163.698 262.076 169.778 247.399C176.965 230.049 187.498 214.284 200.777 201.005C214.056 187.726 229.821 177.193 247.171 170.006C261.848 163.927 277.417 160.343 293.234 159.383C298.012 159.093 301.896 163.001 301.896 167.787V293.457C301.896 298.243 298.015 302.124 293.229 302.124H167.559Z" fill="white"/>
<path d="M491.866 251.823C478.519 251.823 466.613 249.548 456.147 244.998C445.834 240.448 437.037 234.229 429.757 226.342C422.628 218.304 417.168 209.204 413.376 199.042C409.736 188.728 407.916 177.808 407.916 166.281C407.916 153.693 409.964 142.166 414.059 131.7C418.306 121.235 424.221 112.211 431.804 104.627C439.388 96.8922 448.412 90.9012 458.877 86.6545C469.343 82.4077 480.869 80.2843 493.458 80.2843C501.648 80.2843 508.928 81.1185 515.299 82.7869C521.669 84.4553 526.901 86.3511 530.996 88.4745C535.091 90.4462 537.67 92.0388 538.732 93.2521L527.584 116.003C523.489 112.363 518.408 109.405 512.341 107.13C506.426 104.855 499.449 103.717 491.411 103.717C480.945 103.717 471.466 106.296 462.972 111.453C454.631 116.609 447.957 123.889 442.952 133.293C438.099 142.697 435.672 153.844 435.672 166.736C435.672 178.111 437.795 188.501 442.042 197.904C446.289 207.156 452.507 214.588 460.697 220.2C469.039 225.812 479.125 228.618 490.956 228.618C497.477 228.618 503.847 227.783 510.066 226.115C516.436 224.295 522.958 221.337 529.631 217.242L537.139 238.855C535.167 240.675 531.831 242.647 527.129 244.77C522.427 246.742 516.967 248.41 510.748 249.775C504.682 251.14 498.387 251.823 491.866 251.823ZM554.684 250.23V145.806H579.254V166.281C581.681 159.456 585.548 153.92 590.857 149.673C596.317 145.275 602.611 143.076 609.74 143.076C614.593 143.076 617.93 143.531 619.75 144.441L616.337 169.239C614.972 168.329 612.015 167.874 607.465 167.874C603.673 167.874 599.578 168.708 595.179 170.376C590.781 172.045 586.989 175.002 583.804 179.249C580.771 183.344 579.254 189.107 579.254 196.539V250.23H554.684ZM682.273 252.506C669.229 252.506 658.612 250.003 650.422 244.998C642.232 239.841 636.241 233.092 632.449 224.75C628.658 216.408 626.762 207.535 626.762 198.132C626.762 186.757 629.037 176.974 633.587 168.784C638.289 160.594 644.735 154.299 652.925 149.901C661.115 145.351 670.367 143.076 680.68 143.076C697.212 143.076 709.27 147.702 716.854 156.953C724.437 166.054 728.229 178.339 728.229 193.809C728.229 197.904 728.001 202.151 727.546 206.55H652.47C654.138 215.953 657.475 222.702 662.48 226.797C667.637 230.741 674.462 232.713 682.955 232.713C691.146 232.713 697.592 231.954 702.293 230.438C706.995 228.921 710.863 227.404 713.896 225.887L721.404 243.405C718.37 245.377 713.669 247.425 707.298 249.548C700.928 251.52 692.586 252.506 682.273 252.506ZM652.47 189.487H704.341C704.493 179.628 702.293 172.879 697.743 169.239C693.193 165.599 687.278 163.779 679.998 163.779C672.414 163.779 666.196 165.826 661.342 169.921C656.641 173.865 653.683 180.386 652.47 189.487ZM800.172 252.506C790.92 252.506 782.275 250.306 774.236 245.908C766.35 241.509 759.979 235.215 755.126 227.025C750.273 218.835 747.846 209.052 747.846 197.677C747.846 186.605 749.893 177.05 753.988 169.011C758.235 160.821 764.15 154.451 771.734 149.901C779.469 145.351 788.645 143.076 799.262 143.076C805.329 143.076 811.016 144.137 816.325 146.261C821.633 148.232 826.183 150.887 829.975 154.223C833.767 157.56 836.497 161.2 838.165 165.144L837.028 147.398V83.0144H861.143V250.23H837.71L837.255 231.803C835.739 235.139 833.16 238.4 829.52 241.585C826.032 244.77 821.785 247.425 816.78 249.548C811.775 251.52 806.239 252.506 800.172 252.506ZM804.267 231.803C809.879 231.803 814.96 230.513 819.51 227.935C824.212 225.205 827.928 221.413 830.658 216.56C833.539 211.706 834.98 205.943 834.98 199.269V197.677C834.98 190.852 833.539 184.937 830.658 179.931C827.928 174.775 824.212 170.831 819.51 168.101C814.96 165.219 809.879 163.779 804.267 163.779C794.105 163.779 786.446 167.04 781.289 173.561C776.284 180.083 773.781 188.122 773.781 197.677C773.781 207.384 776.284 215.498 781.289 222.02C786.446 228.542 794.105 231.803 804.267 231.803ZM892.667 250.23V145.806H918.147V250.23H892.667ZM905.407 126.24C900.705 126.24 896.762 124.648 893.577 121.463C890.543 118.278 889.027 114.334 889.027 109.632C889.027 105.386 890.543 101.746 893.577 98.7122C896.762 95.6788 900.705 94.1621 905.407 94.1621C910.109 94.1621 913.976 95.6788 917.01 98.7122C920.195 101.746 921.787 105.386 921.787 109.632C921.787 114.334 920.195 118.278 917.01 121.463C913.976 124.648 910.109 126.24 905.407 126.24ZM958.378 250.23V165.826H939.951V145.806H958.378V103.262L983.176 97.8022V145.806H1007.29V165.826H983.176V250.23H958.378ZM1106.89 252.506C1094.3 252.506 1082.7 250.306 1072.08 245.908C1061.61 241.509 1052.51 235.443 1044.78 227.707C1037.2 219.821 1031.28 210.569 1027.03 199.952C1022.94 189.183 1020.89 177.581 1020.89 165.144C1020.89 152.858 1023.01 141.559 1027.26 131.245C1031.51 120.932 1037.5 111.983 1045.23 104.4C1052.97 96.8164 1062.14 90.9771 1072.76 86.882C1083.38 82.6352 1094.98 80.5118 1107.57 80.5118C1117.43 80.5118 1125.92 81.4219 1133.05 83.2419C1140.33 84.9103 1146.09 86.8061 1150.34 88.9295C1154.74 90.9012 1157.55 92.4938 1158.76 93.7071L1148.75 115.093C1147.69 114.183 1145.56 112.818 1142.38 110.997C1139.19 109.177 1134.72 107.509 1128.96 105.992C1123.34 104.476 1116.06 103.717 1107.12 103.717C1094.68 103.717 1084.06 106.447 1075.26 111.908C1066.47 117.216 1059.72 124.42 1055.02 133.52C1050.31 142.621 1047.96 152.707 1047.96 163.779C1047.96 176.671 1050.54 188.122 1055.7 198.132C1060.86 207.99 1067.91 215.726 1076.86 221.337C1085.81 226.797 1095.97 229.528 1107.34 229.528C1113.86 229.528 1120.46 228.693 1127.14 227.025C1133.96 225.357 1139.72 222.551 1144.43 218.607V186.302H1110.07V162.869H1169.68V228.39C1164.67 234.76 1156.79 240.372 1146.02 245.225C1135.25 250.079 1122.21 252.506 1106.89 252.506ZM1245.24 252.506C1234.32 252.506 1224.69 250.079 1216.35 245.225C1208.16 240.372 1201.79 233.774 1197.24 225.432C1192.69 217.091 1190.41 207.839 1190.41 197.677C1190.41 187.667 1192.61 178.566 1197.01 170.376C1201.56 162.034 1207.93 155.437 1216.12 150.583C1224.31 145.578 1234.02 143.076 1245.24 143.076C1256.47 143.076 1266.17 145.578 1274.36 150.583C1282.55 155.437 1288.85 162.034 1293.25 170.376C1297.64 178.566 1299.84 187.667 1299.84 197.677C1299.84 207.839 1297.57 217.091 1293.02 225.432C1288.62 233.774 1282.33 240.372 1274.14 245.225C1265.95 250.079 1256.31 252.506 1245.24 252.506ZM1245.93 232.485C1255.03 232.485 1262 229.148 1266.86 222.475C1271.86 215.801 1274.36 207.687 1274.36 198.132C1274.36 191.61 1273.15 185.771 1270.72 180.614C1268.3 175.306 1264.81 171.059 1260.26 167.874C1255.86 164.689 1250.63 163.096 1244.56 163.096C1238.64 163.096 1233.56 164.689 1229.32 167.874C1225.07 171.059 1221.73 175.306 1219.31 180.614C1217.03 185.771 1215.89 191.61 1215.89 198.132C1215.89 204.502 1217.18 210.341 1219.76 215.65C1222.34 220.807 1225.83 224.902 1230.23 227.935C1234.78 230.968 1240.01 232.485 1245.93 232.485Z" fill="white"/>
</svg>
